<svg width="171" height="114" viewBox="0 0 171 114" fill="none" xmlns="http://www.w3.org/2000/svg">
<path d="M170.688 57.2799C170.683 67.6302 167.757 77.7792 162.233 86.6147C156.709 95.4502 148.799 102.631 139.371 107.371C138.819 107.653 138.258 107.923 137.693 108.183C137.439 108.305 137.19 108.418 136.931 108.531C135.32 109.252 133.667 109.899 131.973 110.472C130.638 110.929 129.267 111.341 127.882 111.697C114.808 115.095 100.927 113.917 88.6507 108.366C88.1477 108.136 87.6447 107.901 87.1507 107.658C77.9592 103.171 70.1621 96.3707 64.565 87.9594C58.9678 79.5481 55.7736 69.8308 55.3124 59.8117C54.8512 49.7926 57.1397 39.8351 61.9415 30.9679C66.7433 22.1007 73.8841 14.6455 82.6263 9.37256C91.3684 4.09965 101.395 1.20029 111.669 0.974053C121.944 0.747813 132.094 3.2029 141.071 8.08564C150.048 12.9684 157.526 20.1017 162.733 28.7485C167.94 37.3953 170.686 47.242 170.688 57.2712V57.2799Z" fill="url(#paint0_linear)"/>
<path d="M90.3466 92.0466L83.9727 82.3299C83.9727 82.3299 101.63 62.4098 103.397 61.2327C103.397 61.2327 94.4905 75.8144 90.3466 92.0466Z" fill="url(#paint1_linear)"/>
<path d="M83.9726 82.33L71.9547 92.7548L49.8462 82.33L32.9321 83.2334C32.9321 83.2334 43.4678 86.7084 46.4322 86.565L49.4011 86.4217C49.4011 86.4217 67.557 103.505 71.7321 104.808C75.9072 106.112 89.621 95.8952 89.621 95.8952L90.4177 92.0771L83.9726 82.33Z" fill="url(#paint2_linear)"/>
<path d="M117.133 58.8741C115.463 59.6632 113.667 60.1685 111.823 60.3683C109.691 60.681 106.45 59.5256 106.45 59.5256C108.899 57.6448 108.329 53.2099 108.329 53.2099L108.382 53.1839C110.995 52.9884 113.18 51.542 114.707 50.1433C114.155 53.9397 117.133 58.8741 117.133 58.8741Z" fill="url(#paint3_linear)"/>
<path d="M117.133 44.7485V47.3547C116.437 48.3672 115.625 49.2985 114.712 50.1303C113.185 51.5333 111 52.9798 108.387 53.1709C107.2 53.2594 106.008 53.0888 104.897 52.6714C97.7754 50.0652 102.783 36.274 102.783 36.274C105.044 30.662 115.281 33.3768 115.281 33.3768C116.652 34.9709 116.915 39.4232 116.862 39.8575C116.633 40.4678 116.335 41.0507 115.971 41.595C115.971 41.595 117.917 39.8054 118.584 40.9956C119.252 42.1858 117.133 44.7485 117.133 44.7485Z" fill="url(#paint4_linear)"/>
<path d="M117.133 47.3634V44.7572C117.133 44.7572 119.247 42.2161 118.58 41.0173C117.912 39.8184 115.967 41.6167 115.967 41.6167C116.33 41.0724 116.629 40.4895 116.857 39.8793C116.911 39.4449 116.688 35.2446 115.277 33.3985C115.277 33.3985 105.04 30.6837 102.778 36.2957C102.778 36.2957 99.8496 35.5703 97.3258 32.1692C93.1997 26.605 98.127 25.923 103.01 26.9959C108.934 28.299 114.872 24.0249 121.66 28.3685C128.448 32.7122 122.363 42.5854 117.133 47.3634Z" fill="#262F72"/>
<g filter="url(#filter0_d)">
<path d="M70.5393 23.1127H12.7866C11.3903 23.1127 10.2584 24.2173 10.2584 25.5799V77.5475C10.2584 78.9101 11.3903 80.0147 12.7866 80.0147H70.5393C71.9356 80.0147 73.0675 78.9101 73.0675 77.5475V25.5799C73.0675 24.2173 71.9356 23.1127 70.5393 23.1127Z" fill="white"/>
</g>
<path d="M19.8772 33.4246C19.7169 33.6016 19.5109 33.7336 19.2807 33.8068C19.006 33.8998 18.7169 33.9454 18.4261 33.9415C18.1244 33.9482 17.8263 33.8762 17.5626 33.733C17.3128 33.5914 17.1127 33.3794 16.9884 33.1249C16.847 32.8316 16.7754 32.5108 16.7792 32.1866V31.9347C16.7711 31.605 16.8364 31.2775 16.9706 30.9748C17.086 30.718 17.2784 30.5014 17.5226 30.3536C17.818 30.1975 18.1519 30.1242 18.4873 30.1419C18.8228 30.1595 19.1467 30.2673 19.4232 30.4535C19.6887 30.6904 19.8485 31.0195 19.8683 31.37H19.1072C19.0899 31.193 19.0077 31.0279 18.8757 30.9053C18.7358 30.8006 18.5621 30.7482 18.3861 30.7576C18.2674 30.7511 18.149 30.7744 18.0423 30.8254C17.9355 30.8764 17.8439 30.9532 17.7763 31.0486C17.6201 31.3116 17.5473 31.6139 17.5671 31.9173V32.1519C17.5478 32.4575 17.6272 32.7613 17.7941 33.0206C17.8711 33.1197 17.9718 33.1988 18.0874 33.2511C18.2031 33.3034 18.3301 33.3271 18.4573 33.3203C18.6827 33.3396 18.907 33.2743 19.0849 33.1379V32.4994H18.3727V31.939H19.8683L19.8772 33.4246Z" fill="#64B5F6"/>
<path d="M65.6431 30.1364H24.72C24.2209 30.1364 23.8164 30.5311 23.8164 31.0181V34.2238C23.8164 34.7107 24.2209 35.1055 24.72 35.1055H65.6431C66.1421 35.1055 66.5467 34.7107 66.5467 34.2238V31.0181C66.5467 30.5311 66.1421 30.1364 65.6431 30.1364Z" fill="#E7EEF2"/>
<path d="M66.5467 37.9115H23.8164V38.7802H66.5467V37.9115Z" fill="#BBDEFB"/>
<path d="M66.5467 39.8662H23.8164V40.735H66.5467V39.8662Z" fill="#E7E8E9"/>
<path d="M66.5467 41.8208H23.8164V42.6895H66.5467V41.8208Z" fill="#E7E8E9"/>
<path d="M66.5467 43.7755H23.8164V44.6442H66.5467V43.7755Z" fill="#E7E8E9"/>
<path d="M66.5467 47.4329H23.8164V48.3016H66.5467V47.4329Z" fill="#BBDEFB"/>
<path d="M66.5467 49.3876H23.8164V50.2563H66.5467V49.3876Z" fill="#E7E8E9"/>
<path d="M66.5467 51.3422H23.8164V52.2109H66.5467V51.3422Z" fill="#E7E8E9"/>
<path d="M66.5467 53.2969H23.8164V54.1656H66.5467V53.2969Z" fill="#E7E8E9"/>
<path d="M66.5467 56.8456H23.8164V57.7143H66.5467V56.8456Z" fill="#BBDEFB"/>
<path d="M66.5467 58.8003H23.8164V59.669H66.5467V58.8003Z" fill="#E7E8E9"/>
<path d="M66.5467 60.7549H23.8164V61.6236H66.5467V60.7549Z" fill="#E7E8E9"/>
<path d="M66.5467 62.7096H23.8164V63.5783H66.5467V62.7096Z" fill="#E7E8E9"/>
<path d="M66.5467 66.2583H23.8164V67.127H66.5467V66.2583Z" fill="#BBDEFB"/>
<path d="M66.5467 68.2129H23.8164V69.0816H66.5467V68.2129Z" fill="#E7E8E9"/>
<path d="M66.5467 70.1676H23.8164V71.0363H66.5467V70.1676Z" fill="#E7E8E9"/>
<path d="M66.5467 72.1223H23.8164V72.9911H66.5467V72.1223Z" fill="#E7E8E9"/>
<path d="M132.529 79.8583C135.574 88.702 137.831 98.94 139.371 107.371C138.819 107.653 138.258 107.923 137.693 108.183C137.439 108.305 137.19 108.418 136.931 108.531C135.32 109.252 133.667 109.899 131.973 110.472C130.638 110.929 129.267 111.341 127.882 111.697C114.808 115.095 100.927 113.917 88.6506 108.366C88.1477 108.136 87.6447 107.901 87.1506 107.658C88.0408 103.197 89.1002 97.954 90.342 92.051C90.7931 89.911 91.2664 87.6841 91.7619 85.3704C94.3124 73.5165 97.9712 67.0619 100.993 63.5652L101.025 63.5305C101.599 62.8657 102.22 62.2415 102.885 61.6627C102.904 61.6416 102.925 61.6227 102.947 61.6062C103.099 61.4759 103.25 61.3543 103.393 61.237C105.213 59.7906 106.45 59.5256 106.45 59.5256L106.562 59.5647H106.624C107.591 59.9368 108.604 60.1807 109.637 60.2901H109.811H109.838C110.498 60.3517 111.161 60.3619 111.823 60.3205H111.863C113.7 60.2062 115.489 59.7022 117.106 58.8436C119.002 59.4556 120.788 60.3541 122.399 61.5063C127.001 64.8031 136.273 76.8916 136.273 76.8916L132.529 79.8583Z" fill="url(#paint5_linear)"/>
<path d="M149.483 96.3642C149.457 97.5718 148.331 100.022 146.684 102.993C144.36 104.629 141.914 106.092 139.366 107.371C138.814 107.653 138.253 107.923 137.688 108.183C137.434 108.305 137.185 108.418 136.927 108.531C135.316 109.252 133.663 109.899 131.968 110.472L136.268 97.0983L125.141 85.6962L132.525 79.8583L136.268 76.9003C136.268 76.9003 149.599 91.6948 149.483 96.3642Z" fill="url(#paint6_linear)"/>
<defs>
<filter id="filter0_d" x="0.258423" y="17.1127" width="82.8091" height="76.9021" filterUnits="userSpaceOnUse" color-interpolation-filters="sRGB">
<feFlood flood-opacity="0" result="BackgroundImageFix"/>
<feColorMatrix in="SourceAlpha" type="matrix" values="0 0 0 0 0 0 0 0 0 0 0 0 0 0 0 0 0 0 127 0" result="hardAlpha"/>
<feOffset dy="4"/>
<feGaussianBlur stdDeviation="5"/>
<feColorMatrix type="matrix" values="0 0 0 0 0 0 0 0 0 0 0 0 0 0 0 0 0 0 0.15 0"/>
<feBlend mode="normal" in2="BackgroundImageFix" result="effect1_dropShadow"/>
<feBlend mode="normal" in="SourceGraphic" in2="effect1_dropShadow" result="shape"/>
</filter>
<linearGradient id="paint0_linear" x1="113.208" y1="7.07612" x2="111.328" y2="118.093" gradientUnits="userSpaceOnUse">
<stop stop-color="white" stop-opacity="0"/>
<stop offset="1" stop-color="#64B5F6" stop-opacity="0.6"/>
</linearGradient>
<linearGradient id="paint1_linear" x1="95.087" y1="59.1651" x2="91.9061" y2="89.2616" gradientUnits="userSpaceOnUse">
<stop stop-color="#42A5F5"/>
<stop offset="1" stop-color="#1565C0"/>
</linearGradient>
<linearGradient id="paint2_linear" x1="56.5673" y1="90.8349" x2="93.4793" y2="95.8478" gradientUnits="userSpaceOnUse">
<stop stop-color="#FFE082"/>
<stop offset="1" stop-color="#FFA726"/>
</linearGradient>
<linearGradient id="paint3_linear" x1="8303.28" y1="2172.28" x2="8305.76" y2="1976.98" gradientUnits="userSpaceOnUse">
<stop stop-color="#FFE082"/>
<stop offset="1" stop-color="#FFA726"/>
</linearGradient>
<linearGradient id="paint4_linear" x1="13212.9" y1="3478.99" x2="13912.1" y2="3478.99" gradientUnits="userSpaceOnUse">
<stop stop-color="#FFE082"/>
<stop offset="1" stop-color="#FFA726"/>
</linearGradient>
<linearGradient id="paint5_linear" x1="37861" y1="12889.4" x2="42898.7" y2="17891.3" gradientUnits="userSpaceOnUse">
<stop stop-color="#42A5F5"/>
<stop offset="1" stop-color="#1565C0"/>
</linearGradient>
<linearGradient id="paint6_linear" x1="20284.9" y1="10467.8" x2="19951.1" y2="8315.25" gradientUnits="userSpaceOnUse">
<stop stop-color="#FFE082"/>
<stop offset="1" stop-color="#FFA726"/>
</linearGradient>
</defs>
</svg>
