<svg width="124" height="119" viewBox="0 0 124 119" fill="none" xmlns="http://www.w3.org/2000/svg">
<path d="M117.976 57.7277C117.983 65.6164 116.28 73.4196 112.976 80.637C109.672 87.8544 104.841 94.327 98.7907 99.6398C97.1078 101.119 95.3386 102.504 93.4915 103.789C91.1211 105.437 88.6257 106.912 86.0264 108.201H85.9992C85.4452 108.481 84.8821 108.748 84.3145 109.006C84.0557 109.129 83.8014 109.242 83.5381 109.356C81.8943 110.083 80.2081 110.735 78.4796 111.313C77.1173 111.75 75.7188 112.188 74.3066 112.547C66.1606 114.635 57.6457 115.022 49.3321 113.68C48.3468 113.523 47.375 113.343 46.4078 113.138L45.5905 112.958C43.1232 112.403 40.6963 111.692 38.3252 110.831C36.9478 110.332 35.5977 109.785 34.2748 109.19C33.7617 108.958 33.2485 108.722 32.7445 108.476C32.3994 108.31 32.0589 108.139 31.7183 107.969C22.479 103.292 14.6953 96.3322 9.1643 87.8023C3.63324 79.2725 0.55356 69.479 0.2406 59.4246C-0.0723604 49.3703 2.39266 39.4164 7.38322 30.5823C12.3738 21.7482 19.7106 14.3512 28.6423 9.14886C37.5741 3.94652 47.7798 1.12573 58.2145 0.975339C68.6492 0.824948 78.9379 3.35036 88.027 8.29297C97.1162 13.2356 104.679 20.4178 109.942 29.1041C115.204 37.7905 117.977 47.6689 117.976 57.7277Z" fill="url(#paint0_linear)"/>
<path d="M74.5243 61.8333C78.275 65.5535 89.2002 80.0319 89.2002 80.0319L82.4889 89.5164L76.4541 70.6743L74.5243 61.8333Z" fill="url(#paint1_linear)"/>
<path d="M85.9997 108.231C85.4457 108.511 84.8826 108.778 84.315 109.037C84.0562 109.159 83.8019 109.273 83.5385 109.387C81.8948 110.113 80.2086 110.765 78.4801 111.343C77.1178 111.781 75.7193 112.219 74.3071 112.577C66.1611 114.666 57.6461 115.052 49.3326 113.711C48.3472 113.553 47.3755 113.374 46.4083 113.168C42.8665 115.523 39.5971 117.514 37.4311 118.42L37.6082 116.963L38.3438 110.866L40.0466 96.681L46.7943 90.3916L31.6234 91.5252C31.6234 91.5252 33.2172 70.2103 39.4382 65.8247C45.6591 61.4392 52.1842 57.5089 52.1842 57.5089C52.9627 58.0037 53.8202 58.3718 54.7225 58.5987C56.8802 59.1736 59.123 59.394 61.3567 59.2508C64.0176 59.1326 66.6785 56.7473 66.8056 56.6248C66.8056 56.6248 70.9832 57.4257 74.525 61.8506C76.2915 64.1284 77.5598 66.7283 78.253 69.4925C79.1249 72.7269 80.6733 80.2812 82.4351 89.4068C83.5885 95.2805 84.8009 101.793 85.9997 108.231Z" fill="url(#paint2_linear)"/>
<path d="M89.2007 80.0494L95.6759 87.363L118.448 65.5754L119.311 61.1154L123.852 57.312L121.831 63.1112V70.6656C121.831 70.6656 104.267 98.1079 99.4266 99.5216C93.7642 101.18 82.4984 89.5076 82.4984 89.5076L89.2007 80.0494Z" fill="url(#paint3_linear)"/>
<path d="M65.5612 90.0504L70.8421 102.305L77.667 99.478L72.663 87.4856L65.5612 90.0504Z" fill="#7E57C2"/>
<path d="M72.9171 97.9677C72.068 98.6418 70.8011 98.4842 69.2299 98.563C67.1192 98.6165 65.0946 99.3816 63.5085 100.725C61.397 102.436 55.494 106.914 49.5909 111.002C48.5193 111.741 47.4477 112.472 46.4123 113.19C42.8705 115.545 39.6011 117.536 37.4352 118.442C36.8657 118.715 36.2508 118.888 35.6188 118.954C32.5856 119.029 31.9362 112.901 31.7501 108.012C31.691 106.389 31.6774 104.905 31.6456 103.833C31.5185 99.5434 31.6456 91.5777 31.6456 91.5777L46.8165 90.4397L45.209 100.568L44.9275 102.358V102.371L49.4683 100.751L49.6091 100.703L65.729 94.9303L66.8415 93.0789L67.5499 94.8296H67.618L74.52 93.9543C74.52 93.9543 74.6381 96.6066 72.9171 97.9677Z" fill="url(#paint4_linear)"/>
<path d="M69.4341 34.0932C69.039 33.0515 68.6985 32.3425 68.5986 32.1324V32.0799C68.5986 32.0799 68.2489 32.9115 65.6152 32.7101C62.9816 32.5088 62.1097 31.2483 62.1097 31.2483C62.1097 31.2483 62.9362 33.9794 59.7985 35.148C56.7788 36.2772 55.5891 35.5463 55.5074 35.4938C55.6663 35.6601 58.0275 38.0936 56.461 40.0237C54.8399 42.0239 51.1936 41.63 51.1936 41.63V41.6563C51.6525 42.6579 52.1663 43.6353 52.7329 44.5843C53.0326 45.0833 53.3278 45.5428 53.6411 45.9718V46.0024C54.4452 47.2633 55.5312 48.3354 56.8197 49.1405C56.2533 52.3435 54.6269 55.2838 52.1835 57.5221C53.0055 57.9355 53.8532 58.2994 54.7218 58.6119C56.4156 59.229 58.6905 59.8418 60.7202 59.6711C63.0721 59.4287 65.2453 58.3486 66.814 56.6423L65.7742 52.7951L64.8388 49.3287C73.2938 47.2498 70.9689 38.2074 69.4341 34.0932ZM64.3665 49.4557L64.5164 49.4207L64.757 49.355C64.4068 49.501 64.0368 49.5983 63.6581 49.6439C63.8534 49.5957 64.0532 49.5432 64.2621 49.4819L64.3665 49.4557Z" fill="url(#paint5_linear)"/>
<path d="M74.5241 31.9661C71.0367 35.0561 69.5292 34.1851 69.4338 34.1019V34.0932C69.0388 33.0515 68.6982 32.3425 68.6028 32.1324L68.5801 32.0799C68.5801 32.0799 68.226 32.9115 65.5923 32.7101C62.9586 32.5088 62.0913 31.2483 62.0913 31.2483C62.0913 31.2483 62.9177 33.9794 59.78 35.148C56.7559 36.2772 55.5662 35.5463 55.489 35.4938C55.6479 35.6557 58.0091 38.0892 56.4425 40.0194C54.8215 42.0195 51.1752 41.63 51.1752 41.63V41.6519C51.6339 42.655 52.1478 43.6339 52.7145 44.5843C53.0173 45.0803 53.32 45.5428 53.6227 45.9718V46.0024C53.6227 46.0024 52.3785 48.3615 50.1581 48.3133C47.9376 48.2652 47.8876 46.1249 47.8876 46.1249C47.8876 46.1249 46.3165 48.856 41.4624 46.2256C36.6083 43.5952 39.8459 39.783 39.8459 39.783C39.8459 39.783 36.4039 37.2445 36.4039 33.4411C36.4039 29.6376 41.7621 26.7446 41.7621 26.7446C41.7621 26.7446 39.8459 22.3284 43.0789 19.8949C46.312 17.4614 51.1707 19.1115 51.1707 19.1115C51.1707 19.1115 51.0753 13.4611 56.0248 13.553C60.9743 13.6449 62.0959 16.5642 62.0959 16.5642C62.0959 16.5642 66.5459 13.2466 70.9505 16.3716C75.355 19.4967 73.5433 24.9457 73.5433 24.9457C73.5433 24.9457 78.1613 28.7492 74.5241 31.9661Z" fill="url(#paint6_linear)"/>
<path opacity="0.15" d="M65.8105 52.7819C63.699 52.1385 59.9437 49.6832 59.9437 49.6832C61.4257 49.8341 62.9231 49.7573 64.3801 49.4556L64.5299 49.4206L64.8206 49.3374H64.8614L65.8105 52.7819Z" fill="black"/>
<path opacity="0.15" d="M48.8417 77.3008L46.7938 90.4311L45.1863 100.559L41.4447 103.557L49.5864 100.708C49.5864 100.708 47.4749 94.8954 48.8417 77.3008Z" fill="black"/>
<path opacity="0.15" d="M46.399 113.168C47.3662 113.374 48.338 113.554 49.3233 113.711C49.3733 112.814 49.4641 111.908 49.5912 111.002L46.399 113.168Z" fill="black"/>
<defs>
<linearGradient id="paint0_linear" x1="59.3365" y1="7.13176" x2="57.4655" y2="118.991" gradientUnits="userSpaceOnUse">
<stop stop-color="white" stop-opacity="0"/>
<stop offset="1" stop-color="#64B5F6" stop-opacity="0.6"/>
</linearGradient>
<linearGradient id="paint1_linear" x1="70.0788" y1="58.0736" x2="85.4269" y2="86.0541" gradientUnits="userSpaceOnUse">
<stop stop-color="#E57373"/>
<stop offset="1" stop-color="#AD1457"/>
</linearGradient>
<linearGradient id="paint2_linear" x1="24859.8" y1="34126.4" x2="23262.2" y2="42307.2" gradientUnits="userSpaceOnUse">
<stop stop-color="#E57373"/>
<stop offset="1" stop-color="#AD1457"/>
</linearGradient>
<linearGradient id="paint3_linear" x1="130.014" y1="68.1883" x2="86.8459" y2="94.1333" gradientUnits="userSpaceOnUse">
<stop stop-color="#FFF8E1"/>
<stop offset="1" stop-color="#FFCC80"/>
</linearGradient>
<linearGradient id="paint4_linear" x1="19116.4" y1="19114.7" x2="16797.6" y2="17492.6" gradientUnits="userSpaceOnUse">
<stop stop-color="#FFF8E1"/>
<stop offset="1" stop-color="#FFCC80"/>
</linearGradient>
<linearGradient id="paint5_linear" x1="73.8795" y1="38.5503" x2="50.1584" y2="48.6853" gradientUnits="userSpaceOnUse">
<stop stop-color="#FFF8E1"/>
<stop offset="1" stop-color="#FFCC80"/>
</linearGradient>
<linearGradient id="paint6_linear" x1="68.3758" y1="13.3867" x2="41.6244" y2="50.8874" gradientUnits="userSpaceOnUse">
<stop stop-color="#FFB74D"/>
<stop offset="1" stop-color="#F4511E"/>
</linearGradient>
</defs>
</svg>
